<?xml version="1.0" encoding="UTF-8"?>
<svg id="_图层_2" data-name="图层 2" xmlns="http://www.w3.org/2000/svg" viewBox="0 0 402.78 400.52">
  <defs>
    <style>
      .cls-1 {
        fill: #c73441;
      }
    </style>
  </defs>
  <g id="_图层_1-2" data-name="图层 1">
    <path d="M137.02,354.54c-.78-1.48-2.17-3.24-3.28-4.62-38.59-18.73-82.97-28.32-125.82-29.98L2.53,187.44,0,116.26l23.37,7.17c71.55,21.95,131.68,57.78,177.93,118.54,25.34-33.45,55.78-60.73,91.92-81.58,30.02-17.32,61.48-30.52,94.82-39.87l14.73-5-6.89,180.59-.9,23.73c-43.67,2.41-87.61,11.15-127.55,30.21l-24.46,47.35c1.13-11.34,1.77-21.59.9-33.5-15.45,11.01-28.41,23.09-42.53,36.63-12.44-11.16-27.77-27.65-42.87-36.21l.68,32.22-22.14-42Z"/>
    <path d="M347.31,99.09c-34.36,5.77-66.67,22.39-94.11,45.64,12.75-20.21,8.09-44-11.56-56.9-12.5-8.2-26.45-10.06-41.32-9.99-16.7.08-32.53,3.02-45.2,14.37-8.13,7.29-13.6,16.92-13.75,28.25-.12,8.78,3.93,15.98,7.84,23.99-26.98-23.6-58.33-38.88-93.68-45.72,8.77-3.43,16.58-8.1,22.35-15.66C100.38,53.63,54.07,15.44,32.7,0c62.03,10.13,114.98,37.82,165.06,74.1,1.88,1.36,4.8,2.02,6.88.46C255.91,35.98,303.64,12.96,368.48.3c-17.83,14.88-40.45,32.46-48.27,54.13-7.69,21.31,8.33,38.51,27.1,44.65Z"/>
    <path class="cls-1" d="M213.47,143.86c.8,7.87-3.73,14.69-10.75,15.3s-13.7-5.01-13.49-12.78c.2-7.33,2.33-14.36,4.61-21.3,4.85-14.75,6.97-28.93,6.71-44.83.74,2.92,1.31,5.96,1.78,9.18-.29,19.33,9.38,37.05,11.14,54.43ZM196.02,150.73c-1.19-6.06-.99-11.17-1.14-17.87-3.41,2.29-4.15,17.86,1.14,17.87Z"/>
    <path d="M266.09,165.89c-15.94,10.37-28.32,22.73-42.02,35.59,30.78-43.14,102.35-80.25,154.82-90.13-23.66,9.91-48.17,18.73-71.94,30.54-14.4,7.15-27.1,15.04-40.86,23.99Z"/>
    <path class="cls-1" d="M178.45,201.07c-4.88-3.66-8.91-7.95-13.45-12.49-43.39-38.79-88.99-57.5-142.91-76.97,42.48,7.64,81.1,25.65,115.29,50.68,15.18,11.48,29.52,22.68,41.08,38.78Z"/>
    <path d="M287.32,137.36c-35.53,21.03-60.87,43.9-79.08,81.05,7.95-23.31,23.37-42.29,41.55-58.44,23.25-20.65,49.26-36.04,78.7-46.1,13.53-4.62,26.31-9.31,40.9-10.21-28.61,8.66-56.24,18.39-82.08,33.69Z"/>
    <path class="cls-1" d="M193.25,216.06c-17.6-41.23-73.36-82.9-115.2-97.28l-44.85-15.42c58.86,7.16,139.43,53.86,160.04,112.7Z"/>
  </g>
</svg>